<!-- Generated by IcoMoon.io -->
<svg version="1.1" xmlns="http://www.w3.org/2000/svg" width="1024" height="1024" viewBox="0 0 1024 1024">
<title></title>
<g id="icomoon-ignore">
</g>
<path d="M56.889 0c-31.403 0-56.889 25.486-56.889 56.889v227.556c0 31.403 25.486 56.889 56.889 56.889h227.556c31.403 0 56.889-25.486 56.889-56.889v-227.556c0-31.403-25.486-56.889-56.889-56.889h-227.556zM455.111 0v113.778h113.778v-113.778h-113.778zM739.556 0c-31.403 0-56.889 25.486-56.889 56.889v227.556c0 31.403 25.486 56.889 56.889 56.889h227.556c31.403 0 56.889-25.486 56.889-56.889v-227.556c0-31.403-25.486-56.889-56.889-56.889h-227.556zM113.778 113.778h113.778v113.778h-113.778v-113.778zM796.444 113.778h113.778v113.778h-113.778v-113.778zM455.111 227.556v113.778h113.778v-113.778h-113.778zM0 455.111v113.778h113.778v-113.778h-113.778zM227.556 455.111v113.778h113.778v-113.778h-113.778zM455.111 455.111v113.778h113.778v-113.778h-113.778zM568.889 568.889v113.778h113.778v-113.778h-113.778zM682.667 568.889h113.778v-113.778h-113.778v113.778zM796.444 568.889v113.778h113.778v-113.778h-113.778zM910.222 568.889h113.778v-113.778h-113.778v113.778zM910.222 682.667v113.778h113.778v-113.778h-113.778zM910.222 796.444h-113.778v113.778h113.778v-113.778zM910.222 910.222v113.778h113.778v-113.778h-113.778zM796.444 910.222h-113.778v113.778h113.778v-113.778zM682.667 910.222v-113.778h-113.778v113.778h113.778zM568.889 910.222h-113.778v113.778h113.778v-113.778zM568.889 796.444v-113.778h-113.778v113.778h113.778zM682.667 796.444h113.778v-113.778h-113.778v113.778zM56.889 682.667c-31.403 0-56.889 25.486-56.889 56.889v227.556c0 31.403 25.486 56.889 56.889 56.889h227.556c31.403 0 56.889-25.486 56.889-56.889v-227.556c0-31.403-25.486-56.889-56.889-56.889h-227.556zM113.778 796.444h113.778v113.778h-113.778v-113.778z"></path>
</svg>
