<!-- Generated by IcoMoon.io -->
<svg version="1.1" xmlns="http://www.w3.org/2000/svg" width="1024" height="1024" viewBox="0 0 1024 1024">
<title></title>
<g id="icomoon-ignore">
</g>
<path d="M512 0c282.77 0 512 229.23 512 512s-229.23 512-512 512c-282.77 0-512-229.23-512-512s229.23-512 512-512zM512 42.667c-259.206 0-469.333 210.128-469.333 469.333s210.128 469.333 469.333 469.333c259.206 0 469.333-210.128 469.333-469.333s-210.128-469.333-469.333-469.333zM499.755 643.499c15.132 0 26.183 3.684 33.152 11.051s10.453 16.825 10.453 28.373v0 10.155l-0.29 5.6c-0.968 9.043-4.356 16.634-10.163 22.773-6.969 7.367-18.020 11.051-33.152 11.051s-26.183-3.684-33.152-11.051c-6.969-7.367-10.453-16.825-10.453-28.373v0-10.155l0.29-5.6c0.968-9.043 4.356-16.634 10.163-22.773 6.969-7.367 18.020-11.051 33.152-11.051zM509.312 301.227c19.513 0 37.234 2.788 53.163 8.363s29.468 13.44 40.619 23.595c11.15 10.155 19.712 22.5 25.685 37.035s8.96 30.564 8.96 48.085c0 17.92-3.086 33.948-9.259 48.085s-14.336 26.183-24.491 36.139c-10.155 9.956-21.604 18.020-34.347 24.192s-25.884 10.453-39.424 12.843v0 54.955h-62.123v-94.976l10.475-0.726c27.197-2.458 48.495-9.085 63.893-19.882 17.323-12.146 25.984-30.165 25.984-54.059v0-8.363l-0.261-6.678c-1.22-15.136-6.708-27.146-16.464-36.031-11.15-10.155-26.084-15.232-44.8-15.232-19.911 0-35.84 5.774-47.787 17.323s-20.11 26.283-24.491 44.203v0l-56.747-22.699 3.005-9.184c3.323-9.109 7.597-17.995 12.824-26.656 6.969-11.548 15.829-21.803 26.581-30.763s23.495-16.128 38.229-21.504c14.734-5.376 31.659-8.064 50.773-8.064z"></path>
</svg>
