<?xml version="1.0" encoding="UTF-8"?>
<svg width="400px" height="338px" viewBox="0 0 400 338" version="1.1" xmlns="http://www.w3.org/2000/svg" xmlns:xlink="http://www.w3.org/1999/xlink">
    <!-- Generator: Sketch 61.2 (89653) - https://sketch.com -->
    <title>Lumen Small Black</title>
    <desc>Created with Sketch.</desc>
    <g id="Lumen-Small-Black" stroke="none" stroke-width="1" fill="none" fill-rule="evenodd">
        <path d="M400,84.5271453 L400,118.939198 L385.44593,126.342184 C374.392139,131.980599 367.80716,143.694538 368.742596,156.055538 C369.064139,160.348593 369.233373,164.692354 369.233373,169.036115 C369.212753,232.572856 333.515892,290.730451 276.83249,319.576332 C220.149089,348.422212 152.056394,343.082568 100.575393,305.754727 L100.575393,305.754727 L130.462007,290.543113 L132.154341,289.647318 C175.045397,313.665727 227.469819,313.179925 269.907251,288.370803 C312.344683,263.56168 338.436269,218.146655 338.466746,169.036115 C338.464839,162.954839 338.069135,156.880051 337.282112,150.849785 L337.282112,150.849785 L104.467761,269.331361 L56.3039431,293.838963 L-1.13686838e-13,322.487503 L-1.13686838e-13,287.990942 L56.6931799,259.139579 L84.244373,245.094189 L400,84.5271453 Z M123.125979,18.4448113 C179.80966,-10.4208604 247.914578,-5.09391459 299.407683,32.2329945 L299.407683,32.2329945 L295.295312,34.328817 L267.727196,48.357306 C224.847129,24.4394636 172.493163,24.9813345 130.118621,49.7815741 C87.7440788,74.5818138 61.6825785,119.933592 61.617871,168.98541 C61.6203404,175.027356 62.0160526,181.062753 62.8025047,187.053428 L62.8025047,187.053428 L295.379929,68.7408696 L343.543747,44.2332683 L400,15.4664148 L400,49.9798782 L343.05297,78.966455 L315.501777,92.9780423 L70.3164664,217.747086 L56.6593332,224.693723 L42.79912,231.758673 L-1.13686838e-13,253.545086 L-1.13686838e-13,219.01472 L14.5371467,211.611735 C25.6008024,205.981654 32.1943942,194.264266 31.257404,181.898381 C30.9302194,177.627861 30.7666272,173.340439 30.7666272,169.036115 C30.7600579,105.490136 66.4422975,47.3104829 123.125979,18.4448113 Z" id="Combined-Shape" fill="#000000" fill-rule="nonzero"></path>
    </g>
</svg>