<!-- Generated by IcoMoon.io -->
<svg version="1.1" xmlns="http://www.w3.org/2000/svg" width="704" height="1024" viewBox="0 0 704 1024">
<title></title>
<g id="icomoon-ignore">
</g>
<path fill="#000" d="M353.009 0.070c-140.474 0-254.157 113.683-254.157 254.157v95.256c-49.329 8.93-98.799 20.837-98.799 36.288v497.117s0 13.75 15.451 20.27c55.991 22.68 276.27 100.642 326.875 118.503 6.52 2.41 8.363 2.41 10.065 2.41 2.41 0 3.544 0 10.065-2.41 50.605-17.861 271.451-95.823 327.442-118.503 14.317-5.953 14.884-19.703 14.884-19.703v-497.683c0-15.451-48.762-27.925-98.232-36.288v-95.256c0.709-140.474-113.683-254.157-253.59-254.157zM353.009 121.55c82.782 0 132.82 50.038 132.82 132.82v82.782c-92.846-6.52-172.084-6.52-265.497 0v-82.782c0-82.924 50.038-132.82 132.678-132.82zM352.442 459.056c115.526 0 212.483 8.93 212.483 24.948v310.148c0 4.819-0.567 5.386-4.819 7.087-4.11 1.843-197.032 71.442-197.032 71.442s-7.796 2.41-10.065 2.41c-2.41 0-10.065-2.977-10.065-2.977s-192.921-69.599-197.032-71.442-4.819-2.41-4.819-7.087v-310.148c-1.134-16.018 95.823-24.381 211.349-24.381z"></path>
</svg>
