<!-- Generated by IcoMoon.io -->
<svg version="1.1" xmlns="http://www.w3.org/2000/svg" width="1024" height="1024" viewBox="0 0 1024 1024">
<title></title>
<g id="icomoon-ignore">
</g>
<path fill="#000" d="M859.228 0.003h-468.070v631.457h631.971v-468.070c0 0 0 0 0-0.001 0-90.237-73.151-163.388-163.388-163.388-0.181 0-0.361 0-0.542 0.001h0.028z"></path>
<path fill="#000" d="M245.24 0.003h-80.665c-90.237 0-163.388 73.151-163.388 163.388v0 80.665h244.054z"></path>
<path fill="#000" d="M1.187 389.975h244.054v244.054h-244.054v-244.054z"></path>
<path fill="#000" d="M781.13 1021.944h80.665c0 0 0 0 0.001 0 90.237 0 163.388-73.151 163.388-163.388 0-0.181 0-0.361-0.001-0.542v0.028-78.097h-244.054z"></path>
<path fill="#000" d="M391.158 779.946h244.054v244.054h-244.054v-244.054z"></path>
<path fill="#000" d="M1.187 779.946v80.665c0 90.237 73.151 163.388 163.388 163.388h80.665v-244.054z"></path>
</svg>
