<?xml version="1.0" encoding="UTF-8"?>
<svg width="800px" height="200px" viewBox="0 0 800 200" version="1.1" xmlns="http://www.w3.org/2000/svg" xmlns:xlink="http://www.w3.org/1999/xlink">
    <!-- Generator: Sketch 61.2 (89653) - https://sketch.com -->
    <title>Stellar Small Black</title>
    <desc>Created with Sketch.</desc>
    <g id="Stellar-Small-Black" stroke="none" stroke-width="1" fill="none" fill-rule="evenodd">
        <path d="M236.380683,50.0160623 L236.380683,70.3782236 L227.779931,74.7586886 C221.247674,78.0950291 217.356269,85.0263537 217.909067,92.3405548 C218.099084,94.8808244 218.199092,97.4510973 218.199092,100.02137 C218.186907,137.617074 197.091786,172.029853 163.594633,189.098421 C130.09748,206.16699 89.8579858,203.007436 59.4352006,180.919957 L59.4352006,180.919957 L77.096746,171.919002 L78.0968335,171.388945 C103.443377,185.601022 134.423678,185.313565 159.502151,170.633611 C184.580624,155.953657 199.999491,129.080861 200.017502,100.02137 C200.016375,96.4229814 199.782533,92.8284323 199.31744,89.2602278 L199.31744,89.2602278 L61.7354018,159.367669 L33.2729114,173.869209 L5.68434189e-14,190.821008 L5.68434189e-14,170.408841 L33.5029315,153.337029 L49.7843561,145.026147 L236.380683,50.0160623 Z M689.590339,63.8375294 C718.912905,63.8375294 731.343993,77.2289508 731.143975,106.942105 L731.143975,106.942105 L730.953958,131.024661 C730.753941,148.666534 731.534009,160.50779 733.664196,170.438845 L733.664196,170.438845 L715.802633,170.438845 C715.047776,165.685027 714.593501,160.88833 714.442514,156.07732 C708.041954,166.968476 697.361019,172.969113 678.719388,172.969113 C659.107672,172.969113 642.796245,162.087958 642.796245,142.865918 C642.796245,118.163296 670.758691,110.832518 713.472429,106.162022 L713.472429,106.162022 L713.472429,103.641754 C713.472429,84.419714 702.991512,78.2090548 689.780356,78.2090548 C675.029065,78.2090548 666.678334,85.9798797 665.898266,98.9812597 L665.898266,98.9812597 L647.646669,98.9812597 C649.196805,76.458869 669.398572,63.8375294 689.590339,63.8375294 Z M517.435276,64.1975676 C549.468078,64.1975676 568.309727,90.8003913 566.16954,124.003916 L566.16954,124.003916 L485.782506,124.003916 C486.362557,146.526306 502.673984,157.39746 518.015326,157.39746 C533.556686,157.39746 542.097434,150.406718 546.557824,140.115626 L546.557824,140.115626 L564.809421,140.115626 C560.149013,157.987523 543.457553,172.93911 518.015326,172.93911 C485.002438,172.93911 466.750841,149.246595 466.750841,118.373318 C466.750841,85.1997968 488.892778,64.1975676 517.435276,64.1975676 Z M350.710687,27.1036302 C376.11291,27.1036302 398.474867,38.5448447 404.11536,65.5477109 L404.11536,65.5477109 L384.883677,65.5477109 C380.22327,49.4360007 363.931844,43.8054031 349.930619,43.8054031 C339.029665,43.8054031 320.028002,48.6559179 320.028002,64.3875877 C320.028002,76.8189073 329.778856,83.0195654 343.030015,85.9398754 L343.030015,85.9398754 L359.291438,89.6302671 C380.853325,94.2907618 406.675584,102.451628 406.675584,130.794637 C406.675584,158.177543 381.083345,172.93911 353.080895,172.93911 C319.877989,172.93911 298.906154,154.727177 295.215831,126.724204 L295.215831,126.724204 L314.677534,126.724204 C318.367857,146.136265 331.569012,156.237337 353.510932,156.237337 C374.482767,156.237337 386.323803,146.546308 386.323803,132.544822 C386.323803,117.593235 373.702699,111.772617 356.031153,107.692184 L356.031153,107.692184 L338.479617,104.001793 C319.057918,99.7313393 299.836236,88.8501843 299.836236,65.5477109 C299.836236,38.5648468 327.988699,27.1036302 350.710687,27.1036302 Z M444.618904,39.7249699 L444.618904,65.9377523 L464.420637,65.9377523 L464.420637,80.1192576 L444.618904,80.1192576 L444.618904,142.065833 C444.618904,152.936987 445.388972,155.657276 455.489855,155.657276 L455.489855,155.657276 L464.420637,155.657276 L464.420637,170.408841 L451.609516,170.408841 C431.607766,170.408841 426.947358,165.948368 426.947358,144.196059 L426.947358,144.196059 L426.947358,80.1192576 L410.435913,80.1192576 L410.435913,65.9377523 L426.947358,65.9377523 L426.947358,39.7249699 L444.618904,39.7249699 Z M794.759541,65.3576907 C796.508445,65.3328621 798.257487,65.3962828 800,65.5477109 L800,65.5477109 L800,84.4297151 C796.725164,83.9113774 793.414735,83.6505509 790.099134,83.6496323 C773.787706,83.6496323 765.626992,92.3505559 765.626992,115.653029 L765.626992,115.653029 L765.626992,170.408841 L747.955446,170.408841 L747.955446,65.9377523 L765.246959,65.9377523 L765.246959,84.1896896 C770.487418,72.3584338 780.968335,65.9377523 794.759541,65.3576907 Z M595.732127,29.5538903 L595.732127,170.408841 L578.06058,170.408841 L578.06058,29.5538903 L595.732127,29.5538903 Z M631.065218,29.5538903 L631.065218,170.408841 L613.393672,170.408841 L613.393672,29.5538903 L631.065218,29.5538903 Z M714.832548,120.143506 C682.789744,123.253836 662.407961,128.104351 662.407961,142.475876 C662.407961,152.386928 669.978623,158.987629 682.599727,158.987629 C699.111172,158.987629 714.832548,151.406824 714.832548,126.754208 L714.832548,126.754208 Z M72.7615075,10.9140895 C106.258826,-6.16618957 146.505543,-3.01415065 176.935482,19.0727778 L176.935482,19.0727778 L174.505269,20.3129094 L158.213844,28.6137905 C132.873795,14.461221 101.935129,14.7818547 76.8938212,29.4565527 C51.8525133,44.1312508 36.4514251,70.9666225 36.4131862,99.9913669 C36.4146454,103.566483 36.6484922,107.137724 37.1132474,110.682502 L37.1132474,110.682502 L174.555274,40.6750708 L203.017764,26.1735315 L236.380683,9.15172475 L236.380683,29.5738925 L202.727739,46.725713 L186.446314,55.0165931 L41.5536359,128.844429 L33.4829298,132.954866 L25.2922131,137.13531 L5.68434189e-14,150.026678 L5.68434189e-14,129.594509 L8.59075169,125.214044 C15.1288379,121.882635 19.0253323,114.94927 18.4716163,107.632178 C18.278266,105.105243 18.1815909,102.568307 18.1815909,100.02137 C18.1777087,62.4201986 39.2641892,27.9943686 72.7615075,10.9140895 Z M517.435276,79.3391748 C501.893916,79.3391748 487.532659,87.8500782 485.972523,108.852307 L485.972523,108.852307 L547.527909,108.852307 C546.947858,94.1007416 536.266923,79.3391748 517.435276,79.3391748 Z" id="Combined-Shape" fill="#000000" fill-rule="nonzero"></path>
    </g>
</svg>