<?xml version="1.0" encoding="UTF-8"?>
<svg width="528px" height="68px" viewBox="0 0 528 68" version="1.1" xmlns="http://www.w3.org/2000/svg" xmlns:xlink="http://www.w3.org/1999/xlink">
    <title>CB023057-DC6D-4002-9255-BE1C6960D1DF</title>
    <g id="Page-1" stroke="none" stroke-width="1" fill="none" fill-rule="evenodd">
        <g id="Account-Viewer-05-02" transform="translate(-456.000000, -270.000000)">
            <g id="Group-29" transform="translate(408.000000, 118.000000)">
                <g id="Group-28" transform="translate(24.000000, 32.000000)">
                    <g id="Group-14" transform="translate(0.000000, 96.000000)">
                        <g id="URL" transform="translate(24.000000, 24.000000)">
                            <rect id="Rectangle" fill="#35363A" x="0" y="0" width="528" height="68" rx="4"></rect>
                            <g id="Group-18" transform="translate(8.000000, 8.000000)">
                                <g id="Group-17" transform="translate(0.000000, 20.000000)">
                                    <rect id="Rectangle" fill="#202124" x="0" y="0" width="512" height="32" rx="16"></rect>
                                    <g id="Group-15" transform="translate(20.000000, 6.000000)" fill="#FFFFFF" fill-rule="nonzero">
                                        <g id="Group-16">
                                            <g id="icons8-lock" transform="translate(0.000000, 4.000000)">
                                                <path d="M4.67532468,-2.07626124e-16 C3.03711896,-2.07626124e-16 1.70011806,1.47070103 1.70011806,3.27272727 L1.70011806,4.20779221 L0.850059032,4.20779221 C0.380401417,4.20779221 0,4.62623377 0,5.14285714 L0,10.7532468 C0,11.2698701 0.380401417,11.6883117 0.850059032,11.6883117 L8.50059032,11.6883117 C8.97024793,11.6883117 9.35064935,11.2698701 9.35064935,10.7532468 L9.35064935,5.14285714 C9.35064935,4.62623377 8.97024793,4.20779221 8.50059032,4.20779221 L7.65053129,4.20779221 L7.65053129,3.27272727 C7.65053129,1.52957095 6.39099074,0.125562997 4.82640949,0.0337865143 C4.77834119,0.0124880095 4.72713751,0.00103753032 4.67532468,-2.07626124e-16 Z M4.67532468,0.935064935 C5.85421459,0.935064935 6.80047226,1.97594832 6.80047226,3.27272727 L6.80047226,4.20779221 L2.5501771,4.20779221 L2.5501771,3.27272727 C2.5501771,1.97594832 3.49643476,0.935064935 4.67532468,0.935064935 Z" id="Shape"></path>
                                            </g>
                                            <path d="M28.8369141,15.1230469 C29.7802734,15.1230469 30.6894531,14.6171875 31.1064453,13.8173828 L31.140625,13.8173828 L31.140625,15 L32.5556641,15 L32.5556641,10.0439453 C32.5556641,8.6015625 31.4414062,7.67871094 29.6982422,7.67871094 C27.9208984,7.67871094 26.8134766,8.63574219 26.7314453,9.93457031 L28.1259766,9.93457031 C28.2558594,9.29199219 28.7890625,8.88183594 29.6435547,8.88183594 C30.5458984,8.88183594 31.0859375,9.36035156 31.0859375,10.1601562 L31.0859375,10.7138672 L29.1171875,10.8300781 C27.4082031,10.9257812 26.4443359,11.6982422 26.4443359,12.9560547 C26.4443359,14.2480469 27.4287109,15.1230469 28.8369141,15.1230469 Z M29.2470703,13.9541016 C28.4541016,13.9541016 27.9345703,13.5439453 27.9345703,12.9150391 C27.9345703,12.2998047 28.4335938,11.9101562 29.3154297,11.8486328 L31.0859375,11.7392578 L31.0859375,12.3066406 C31.0859375,13.2431641 30.2792969,13.9541016 29.2470703,13.9541016 Z M37.0605469,15.1367188 C38.7900391,15.1367188 40.0136719,14.0976562 40.1708984,12.5664062 L38.7490234,12.5664062 C38.578125,13.4003906 37.9833984,13.8994141 37.0742188,13.8994141 C35.9257812,13.8994141 35.1669922,12.9833984 35.1669922,11.4042969 C35.1669922,9.859375 35.9189453,8.90917969 37.0605469,8.90917969 C38.0244141,8.90917969 38.5986328,9.51757812 38.7490234,10.2832031 L40.1572266,10.2832031 C40.0273438,8.86816406 38.8994141,7.67871094 37.046875,7.67871094 C35.0029297,7.67871094 33.6630859,9.12109375 33.6630859,11.4042969 C33.6630859,13.7285156 35.0029297,15.1367188 37.0605469,15.1367188 Z M44.2929688,15.1367188 C46.0224609,15.1367188 47.2460938,14.0976562 47.4033203,12.5664062 L45.9814453,12.5664062 C45.8105469,13.4003906 45.2158203,13.8994141 44.3066406,13.8994141 C43.1582031,13.8994141 42.3994141,12.9833984 42.3994141,11.4042969 C42.3994141,9.859375 43.1513672,8.90917969 44.2929688,8.90917969 C45.2568359,8.90917969 45.8310547,9.51757812 45.9814453,10.2832031 L47.3896484,10.2832031 C47.2597656,8.86816406 46.1318359,7.67871094 44.2792969,7.67871094 C42.2353516,7.67871094 40.8955078,9.12109375 40.8955078,11.4042969 C40.8955078,13.7285156 42.2353516,15.1367188 44.2929688,15.1367188 Z M51.5390625,15.1367188 C53.5966797,15.1367188 54.9501953,13.7216797 54.9501953,11.4042969 C54.9501953,9.09375 53.5898438,7.67871094 51.5390625,7.67871094 C49.4882812,7.67871094 48.1279297,9.09375 48.1279297,11.4042969 C48.1279297,13.7216797 49.4814453,15.1367188 51.5390625,15.1367188 Z M51.5390625,13.9199219 C50.3837891,13.9199219 49.6318359,13.0039062 49.6318359,11.4042969 C49.6318359,9.81152344 50.3837891,8.89550781 51.5390625,8.89550781 C52.6943359,8.89550781 53.4462891,9.81152344 53.4462891,11.4042969 C53.4462891,13.0039062 52.7011719,13.9199219 51.5390625,13.9199219 Z M58.5800781,15.1298828 C59.6806641,15.1298828 60.4121094,14.6445312 60.8085938,13.7832031 L60.8427734,13.7832031 L60.8427734,15 L62.2578125,15 L62.2578125,7.80859375 L60.78125,7.80859375 L60.78125,11.9990234 C60.78125,13.1201172 60.1386719,13.8583984 59.0722656,13.8583984 C58.0537109,13.8583984 57.5341797,13.2705078 57.5341797,12.1767578 L57.5341797,7.80859375 L56.0576172,7.80859375 L56.0576172,12.4638672 C56.0576172,14.1113281 57.0146484,15.1298828 58.5800781,15.1298828 Z M65.1904297,15 L65.1904297,10.8095703 C65.1904297,9.6953125 65.8603516,8.95703125 66.8994141,8.95703125 C67.9248047,8.95703125 68.4306641,9.55175781 68.4306641,10.6318359 L68.4306641,15 L69.9140625,15 L69.9140625,10.3447266 C69.9140625,8.69726562 69.0048828,7.68554688 67.4189453,7.68554688 C66.3115234,7.68554688 65.5458984,8.19140625 65.15625,9.01171875 L65.1220703,9.01171875 L65.1220703,7.80859375 L63.7138672,7.80859375 L63.7138672,15 L65.1904297,15 Z M73.7900391,15.0478516 C74.1181641,15.0478516 74.4462891,15.0205078 74.6103516,14.9794922 L74.6103516,13.8105469 C74.5146484,13.8310547 74.2753906,13.8447266 74.125,13.8447266 C73.5234375,13.8447266 73.25,13.5644531 73.25,12.9423828 L73.25,8.97753906 L74.6171875,8.97753906 L74.6171875,7.80859375 L73.25,7.80859375 L73.25,6.10644531 L71.7666016,6.10644531 L71.7666016,7.80859375 L70.7207031,7.80859375 L70.7207031,8.97753906 L71.7666016,8.97753906 L71.7666016,13.1064453 C71.7666016,14.4941406 72.3339844,15.0478516 73.7900391,15.0478516 Z M79.3886719,15 L81.9658203,7.80859375 L80.4208984,7.80859375 L78.6162109,13.5576172 L78.5888672,13.5576172 L76.7841797,7.80859375 L75.2119141,7.80859375 L77.8027344,15 L79.3886719,15 Z M83.5996094,6.64648438 C84.0712891,6.64648438 84.4472656,6.26367188 84.4472656,5.79882812 C84.4472656,5.32714844 84.0712891,4.95117188 83.5996094,4.95117188 C83.1279297,4.95117188 82.7451172,5.32714844 82.7451172,5.79882812 C82.7451172,6.26367188 83.1279297,6.64648438 83.5996094,6.64648438 Z M84.3378906,15 L84.3378906,7.80859375 L82.8613281,7.80859375 L82.8613281,15 L84.3378906,15 Z M88.9179688,15.1367188 C90.5654297,15.1367188 91.8095703,14.2001953 92.0146484,12.8876953 L90.6132812,12.8876953 C90.4150391,13.5166016 89.7929688,13.9404297 88.9521484,13.9404297 C87.7695312,13.9404297 87.0175781,13.1132812 87.0175781,11.8623047 L87.0175781,11.7734375 L92.0966797,11.7734375 L92.0966797,11.2675781 C92.0966797,9.08691406 90.8525391,7.67871094 88.8564453,7.67871094 C86.8261719,7.67871094 85.5273438,9.18261719 85.5273438,11.4384766 C85.5273438,13.7080078 86.8056641,15.1367188 88.9179688,15.1367188 Z M90.6201172,10.7412109 L87.0244141,10.7412109 C87.0996094,9.65429688 87.8242188,8.86816406 88.8564453,8.86816406 C89.8886719,8.86816406 90.5859375,9.640625 90.6201172,10.7412109 Z M96.1777344,15 L97.6748047,9.61328125 L97.7089844,9.61328125 L99.2197266,15 L100.757812,15 L102.726562,7.80859375 L101.263672,7.80859375 L99.9511719,13.46875 L99.9169922,13.46875 L98.4130859,7.80859375 L96.9912109,7.80859375 L95.4941406,13.46875 L95.4667969,13.46875 L94.1542969,7.80859375 L92.6777344,7.80859375 L94.6533203,15 L96.1777344,15 Z M106.698242,15.1367188 C108.345703,15.1367188 109.589844,14.2001953 109.794922,12.8876953 L108.393555,12.8876953 C108.195312,13.5166016 107.573242,13.9404297 106.732422,13.9404297 C105.549805,13.9404297 104.797852,13.1132812 104.797852,11.8623047 L104.797852,11.7734375 L109.876953,11.7734375 L109.876953,11.2675781 C109.876953,9.08691406 108.632812,7.67871094 106.636719,7.67871094 C104.606445,7.67871094 103.307617,9.18261719 103.307617,11.4384766 C103.307617,13.7080078 104.585938,15.1367188 106.698242,15.1367188 Z M108.400391,10.7412109 L104.804688,10.7412109 C104.879883,9.65429688 105.604492,8.86816406 106.636719,8.86816406 C107.668945,8.86816406 108.366211,9.640625 108.400391,10.7412109 Z M112.495117,15 L112.495117,10.6933594 C112.495117,9.67480469 113.083008,9.0390625 114.033203,9.0390625 C114.320312,9.0390625 114.580078,9.07324219 114.696289,9.12109375 L114.696289,7.74707031 C114.586914,7.7265625 114.402344,7.69238281 114.19043,7.69238281 C113.342773,7.69238281 112.700195,8.19140625 112.460938,9.03222656 L112.426758,9.03222656 L112.426758,7.80859375 L111.018555,7.80859375 L111.018555,15 L112.495117,15 Z M116.719727,15.0751953 C117.21875,15.0751953 117.615234,14.6787109 117.615234,14.1796875 C117.615234,13.6806641 117.21875,13.2841797 116.719727,13.2841797 C116.220703,13.2841797 115.824219,13.6806641 115.824219,14.1796875 C115.824219,14.6787109 116.220703,15.0751953 116.719727,15.0751953 Z M121.990234,15.1367188 C123.685547,15.1367188 124.90918,14.234375 124.90918,12.921875 C124.90918,11.8828125 124.348633,11.3085938 122.878906,10.9667969 L121.709961,10.7001953 C120.930664,10.5224609 120.602539,10.2148438 120.602539,9.76367188 C120.602539,9.18945312 121.135742,8.79980469 121.935547,8.79980469 C122.762695,8.79980469 123.275391,9.23730469 123.357422,9.93457031 L124.745117,9.93457031 C124.697266,8.60839844 123.610352,7.67871094 121.935547,7.67871094 C120.28125,7.67871094 119.160156,8.56054688 119.160156,9.84570312 C119.160156,10.8916016 119.836914,11.5478516 121.204102,11.8623047 L122.373047,12.1357422 C123.15918,12.3134766 123.425781,12.5869141 123.425781,13.0517578 C123.425781,13.6396484 122.878906,14.0087891 121.990234,14.0087891 C121.087891,14.0087891 120.575195,13.6396484 120.438477,12.8876953 L118.975586,12.8876953 C119.112305,14.2548828 120.192383,15.1367188 121.990234,15.1367188 Z M128.504883,15.0478516 C128.833008,15.0478516 129.161133,15.0205078 129.325195,14.9794922 L129.325195,13.8105469 C129.229492,13.8310547 128.990234,13.8447266 128.839844,13.8447266 C128.238281,13.8447266 127.964844,13.5644531 127.964844,12.9423828 L127.964844,8.97753906 L129.332031,8.97753906 L129.332031,7.80859375 L127.964844,7.80859375 L127.964844,6.10644531 L126.481445,6.10644531 L126.481445,7.80859375 L125.435547,7.80859375 L125.435547,8.97753906 L126.481445,8.97753906 L126.481445,13.1064453 C126.481445,14.4941406 127.048828,15.0478516 128.504883,15.0478516 Z M133.611328,15.1367188 C135.258789,15.1367188 136.50293,14.2001953 136.708008,12.8876953 L135.306641,12.8876953 C135.108398,13.5166016 134.486328,13.9404297 133.645508,13.9404297 C132.462891,13.9404297 131.710938,13.1132812 131.710938,11.8623047 L131.710938,11.7734375 L136.790039,11.7734375 L136.790039,11.2675781 C136.790039,9.08691406 135.545898,7.67871094 133.549805,7.67871094 C131.519531,7.67871094 130.220703,9.18261719 130.220703,11.4384766 C130.220703,13.7080078 131.499023,15.1367188 133.611328,15.1367188 Z M135.313477,10.7412109 L131.717773,10.7412109 C131.792969,9.65429688 132.517578,8.86816406 133.549805,8.86816406 C134.582031,8.86816406 135.279297,9.640625 135.313477,10.7412109 Z M139.462891,15 L139.462891,5.13574219 L137.986328,5.13574219 L137.986328,15 L139.462891,15 Z M142.511719,15 L142.511719,5.13574219 L141.035156,5.13574219 L141.035156,15 L142.511719,15 Z M146.134766,15.1230469 C147.078125,15.1230469 147.987305,14.6171875 148.404297,13.8173828 L148.438477,13.8173828 L148.438477,15 L149.853516,15 L149.853516,10.0439453 C149.853516,8.6015625 148.739258,7.67871094 146.996094,7.67871094 C145.21875,7.67871094 144.111328,8.63574219 144.029297,9.93457031 L145.423828,9.93457031 C145.553711,9.29199219 146.086914,8.88183594 146.941406,8.88183594 C147.84375,8.88183594 148.383789,9.36035156 148.383789,10.1601562 L148.383789,10.7138672 L146.415039,10.8300781 C144.706055,10.9257812 143.742188,11.6982422 143.742188,12.9560547 C143.742188,14.2480469 144.726562,15.1230469 146.134766,15.1230469 Z M146.544922,13.9541016 C145.751953,13.9541016 145.232422,13.5439453 145.232422,12.9150391 C145.232422,12.2998047 145.731445,11.9101562 146.613281,11.8486328 L148.383789,11.7392578 L148.383789,12.3066406 C148.383789,13.2431641 147.577148,13.9541016 146.544922,13.9541016 Z M152.758789,15 L152.758789,10.6933594 C152.758789,9.67480469 153.34668,9.0390625 154.296875,9.0390625 C154.583984,9.0390625 154.84375,9.07324219 154.959961,9.12109375 L154.959961,7.74707031 C154.850586,7.7265625 154.666016,7.69238281 154.454102,7.69238281 C153.606445,7.69238281 152.963867,8.19140625 152.724609,9.03222656 L152.69043,9.03222656 L152.69043,7.80859375 L151.282227,7.80859375 L151.282227,15 L152.758789,15 Z M156.983398,15.0751953 C157.482422,15.0751953 157.878906,14.6787109 157.878906,14.1796875 C157.878906,13.6806641 157.482422,13.2841797 156.983398,13.2841797 C156.484375,13.2841797 156.087891,13.6806641 156.087891,14.1796875 C156.087891,14.6787109 156.484375,15.0751953 156.983398,15.0751953 Z M162.643555,15.1367188 C164.701172,15.1367188 166.054688,13.7216797 166.054688,11.4042969 C166.054688,9.09375 164.694336,7.67871094 162.643555,7.67871094 C160.592773,7.67871094 159.232422,9.09375 159.232422,11.4042969 C159.232422,13.7216797 160.585938,15.1367188 162.643555,15.1367188 Z M162.643555,13.9199219 C161.488281,13.9199219 160.736328,13.0039062 160.736328,11.4042969 C160.736328,9.81152344 161.488281,8.89550781 162.643555,8.89550781 C163.798828,8.89550781 164.550781,9.81152344 164.550781,11.4042969 C164.550781,13.0039062 163.805664,13.9199219 162.643555,13.9199219 Z M168.672852,15 L168.672852,10.6933594 C168.672852,9.67480469 169.260742,9.0390625 170.210938,9.0390625 C170.498047,9.0390625 170.757812,9.07324219 170.874023,9.12109375 L170.874023,7.74707031 C170.764648,7.7265625 170.580078,7.69238281 170.368164,7.69238281 C169.520508,7.69238281 168.87793,8.19140625 168.638672,9.03222656 L168.604492,9.03222656 L168.604492,7.80859375 L167.196289,7.80859375 L167.196289,15 L168.672852,15 Z M174.866211,17.7070312 C176.916992,17.7070312 178.243164,16.5859375 178.243164,14.8701172 L178.243164,7.80859375 L176.807617,7.80859375 L176.807617,9.0390625 L176.780273,9.0390625 C176.342773,8.20507812 175.508789,7.69238281 174.490234,7.69238281 C172.644531,7.69238281 171.46875,9.11425781 171.46875,11.3769531 C171.46875,13.6191406 172.651367,15.0273438 174.456055,15.0273438 C175.481445,15.0273438 176.329102,14.5146484 176.732422,13.7353516 L176.759766,13.7353516 L176.759766,14.9179688 C176.759766,15.9023438 176.076172,16.5585938 174.920898,16.5585938 C174.080078,16.5585938 173.423828,16.1621094 173.211914,15.5605469 L171.728516,15.5605469 C171.913086,16.8046875 173.170898,17.7070312 174.866211,17.7070312 Z M174.852539,13.8037109 C173.717773,13.8037109 172.979492,12.8876953 172.979492,11.3837891 C172.979492,9.88671875 173.717773,8.93652344 174.852539,8.93652344 C176.007812,8.93652344 176.766602,9.90722656 176.766602,11.3837891 C176.766602,12.8671875 176.007812,13.8037109 174.852539,13.8037109 Z" id="accountviewer.stellar.org"></path>
                                        </g>
                                    </g>
                                </g>
                                <g id="Group-5">
                                    <circle id="Oval" fill="#FF5A52" cx="6" cy="6" r="6"></circle>
                                    <circle id="Oval" fill="#E7C029" cx="26" cy="6" r="6"></circle>
                                    <circle id="Oval" fill="#53C22C" cx="46" cy="6" r="6"></circle>
                                </g>
                            </g>
                        </g>
                    </g>
                </g>
            </g>
        </g>
    </g>
</svg>